PathFileType	4	(X/Y/Z)	C:\Users\WrightLab\Desktop\Jo\P1.2Trial14.trc
DataRate	CameraRate	NumFrames	NumMarkers	Units	OrigDataRate	OrigDataStartFrame	OrigNumFrames
100.00	100.00	       37	19	mm	100.00	235	       938
Frame#	Time	Headset_Front			Headset_Back			Headset_Left			Headset_Right			Left_Shoulder			Right_Shoulder			Sternum			C7			Left Elbow			Right Elbow			Left Wrist			Right Wrist			Left ASIS			Right ASIS			S2			Left Knee			Right Knee			Left Ankle			Right Ankle			
		X1	Y1	Z1	X2	Y2	Z2	X3	Y3	Z3	X4	Y4	Z4	X5	Y5	Z5	X6	Y6	Z6	X7	Y7	Z7	X8	Y8	Z8	X9	Y9	Z9	X10	Y10	Z10	X11	Y11	Z11	X12	Y12	Z12	X13	Y13	Z13	X14	Y14	Z14	X15	Y15	Z15	X16	Y16	Z16	X17	Y17	Z17	X18	Y18	Z18	X19	Y19	Z19	

235	2.340																												-255.55119	994.74890	1439.19788				-312.61588	793.09900	1266.23682													-412.61084	441.72806	1539.41357							
236	2.350																												-257.04938	993.94171	1439.05396				-314.23160	791.02527	1268.52759													-413.53009	440.82867	1538.25781							
237	2.360																												-259.52588	993.45605	1438.86133				-316.42438	789.19971	1269.30603													-414.39633	440.34665	1538.94055							
238	2.370																												-261.96970	992.89838	1438.17480				-319.14240	787.20337	1271.58618													-414.72952	439.98022	1538.02527							
239	2.380																												-264.71777	992.66895	1437.31506				-322.23041	784.28149	1272.88123													-415.59210	439.17279	1536.78125							
240	2.390																												-267.17923	992.16290	1437.02161				-327.88062	780.53107	1276.74719													-416.72864	438.78580	1535.06226							
241	2.400																												-270.57422	991.55817	1436.39087				-333.77579	776.71442	1281.06775													-418.34027	438.51627	1534.97937							
242	2.410																												-273.45935	990.89526	1436.29846				-339.87244	772.56763	1283.40759													-419.09225	438.21646	1533.90967							
243	2.420																												-277.00638	990.38672	1435.30518				-347.61594	767.43036	1289.15210													-419.57919	438.31625	1532.93335							
244	2.430																												-280.60709	988.31036	1434.84924				-356.21603	762.80505	1295.19214													-420.93176	438.11319	1531.25610							
245	2.440																												-284.02219	988.16229	1434.54895				-364.55917	757.73175	1301.44043													-422.98920	438.01123	1529.99817							
246	2.450																												-287.74042	986.72150	1434.58264				-373.40015	752.23669	1309.20544													-423.98410	437.50879	1528.67273							
247	2.460																												-292.38449	985.49323	1434.80261				-382.93375	747.20172	1317.02710													-425.78546	437.60550	1526.86292							
248	2.470																												-297.21762	983.81702	1435.12708				-391.85449	742.34839	1324.66809													-427.26688	437.52524	1526.04883							
249	2.480																												-302.99149	982.14685	1435.26477				-401.98300	738.30737	1332.92700													-428.61615	436.74741	1525.50391							
250	2.490																												-308.98798	980.47681	1434.94189				-410.37726	735.23492	1341.80872													-430.06430	436.42963	1525.01733							
251	2.500																												-315.18683	978.43549	1435.43408				-419.71286	732.84570	1348.27039													-431.46643	436.38205	1524.29199							
252	2.510																												-321.79291	976.91583	1435.66833				-429.88348	729.88684	1355.41248													-433.16354	435.23672	1523.06836							
253	2.520																												-328.40411	975.49939	1435.80200				-438.77841	728.25879	1361.74536													-435.36932	435.54147	1521.33533							
254	2.530																												-335.82391	973.44543	1436.31006				-447.90366	725.94598	1368.58716													-436.77499	435.04761	1520.68274							
255	2.540																												-342.67035	972.03662	1436.88306				-457.19489	724.24707	1374.17908													-439.56216	434.74057	1519.41663							
256	2.550																												-349.70602	971.14905	1437.56836				-465.02466	723.74005	1378.78186													-441.60071	434.50882	1517.55737							
257	2.560																												-358.46793	970.06439	1438.66467				-472.89447	723.42590	1381.89099													-444.38110	434.26370	1516.14404							
258	2.570																												-364.45987	968.99628	1438.73572				-480.60129	722.71613	1384.17896													-446.66891	433.54211	1515.34009							
259	2.580																												-368.29068	968.40228	1438.66333				-486.45801	723.10602	1387.08911													-449.03577	433.02582	1513.82446							
260	2.590																												-371.81079	967.77802	1437.74023				-491.12695	722.52454	1386.22144													-451.96039	431.93646	1513.89551							
261	2.600																												-375.98129	967.33490	1436.76416				-495.17255	723.16083	1383.87231													-456.29681	430.96130	1511.18408							
262	2.610																												-380.78760	966.57471	1433.50183				-499.78018	723.17181	1380.25208													-458.36633	431.19370	1507.81885							
263	2.620																												-383.79108	966.24377	1429.44116				-504.87253	722.70551	1374.78479													-461.44028	429.43646	1506.96082							
264	2.630																												-388.71179	966.12128	1427.16675				-508.52368	722.86780	1369.27271													-465.26007	428.95670	1504.00110							
265	2.640																												-393.98566	964.98816	1423.90271				-512.34082	722.05017	1364.14880													-469.73230	428.42468	1501.72229							
266	2.650																												-399.02820	964.80341	1419.86841				-515.60522	721.03906	1358.26770													-474.08411	428.15186	1498.30054							
267	2.660							-762.78784	1429.77588	1434.95007																			-404.89642	964.18756	1417.57715				-518.55164	719.98163	1350.10461													-479.48206	426.93884	1495.25757							
268	2.670							-770.05316	1429.36426	1433.11975																			-410.66342	963.36060	1414.57825				-521.26404	718.36005	1343.36963													-484.17398	425.52927	1491.65417							
269	2.680							-776.47607	1428.15125	1431.35852																			-416.10342	962.65924	1411.34485				-523.17853	717.22382	1335.82727													-490.07806	424.66885	1489.30798							
270	2.690							-782.98871	1427.08984	1429.62170																			-422.56027	962.27100	1408.91870				-525.35370	715.49292	1329.66309													-496.84628	424.29105	1485.46191							
271	2.700							-790.73267	1426.83508	1427.92358				-845.19843	1266.17993	1606.06177													-429.41824	962.14764	1405.23096				-526.01208	714.92786	1322.32361													-503.03293	424.10083	1481.74597							
